#!OML:ASF Y:\EmotionMaleHayes\Project 1\Capture day 1\Session 1\Male1.ASF
:FULLY-SPECIFIED
:DEGREES
1296
root 47.6807 17.0969 -0.894991 121.519 83.8563 124.406
lowerback 3.14313 1.67901 -7.88184
upperback 1.53262 2.05291 -0.712126
thorax -0.423749 1.0157 3.60403
lowerneck -23.8665 -0.122542 0.781179
upperneck 19.4307 -1.11685 2.90261
head 10.1507 -0.066527 0.737949
rclavicle -1.53478e-014 3.6154e-015
rhumerus -35.332 5.83684 -89.2432
rradius 33.5299
rwrist 3.30442
rhand -9.30586 -29.7855
rfingers 7.12502
rthumb 16.652 -59.0912
lclavicle -1.53478e-014 3.6154e-015
lhumerus -33.7959 -14.8695 94.3395
lradius 38.9373
lwrist 0.492083
lhand -18.8807 -26.1837
lfingers 7.12502
lthumb 7.42028 3.6662
rfemur 12.8092 -6.50318 6.96083
rtibia 5.57883
rfoot -19.3 -11.2975
rtoes 13.9627
lfemur 14.9365 -4.01785 -20.6967
ltibia 0.281007
lfoot -13.0129 9.39522
ltoes -0.986969
1297
root 47.6821 17.1028 -0.899605 123.542 83.9771 126.195
lowerback 2.90721 1.61639 -7.56048
upperback 1.45428 1.99291 -0.680208
thorax -0.357188 0.985009 3.46586
lowerneck -23.8618 -0.0935239 0.788136
upperneck 19.4783 -1.07223 2.87081
head 10.1661 -0.0487552 0.732671
rclavicle 2.23299e-014 -1.89467e-015
rhumerus -35.4141 5.70463 -89.1737
rradius 33.5681
rwrist 3.4736
rhand -9.10023 -29.8502
rfingers 7.12502
rthumb 16.85 -59.1391
lclavicle 2.23299e-014 -1.89467e-015
lhumerus -33.8906 -15.1797 94.5322
lradius 39.2548
lwrist 0.598614
lhand -18.5748 -25.9967
lfingers 7.12502
lthumb 7.71559 3.84257
rfemur 12.5364 -7.12167 7.03171
rtibia 5.75603
rfoot -19.1739 -10.881
rtoes 13.4555
lfemur 14.6872 -3.97753 -20.49
ltibia 0.287981
lfoot -13.0028 9.26942
ltoes -0.942934
1298
root 47.6778 17.1037 -0.894024 120.558 83.4775 123.154
lowerback 2.95228 1.63458 -8.22497
upperback 1.40993 1.99688 -0.825931
thorax -0.443654 0.991218 3.68325
lowerneck -23.8119 -0.152529 0.657357
upperneck 19.4734 -1.1353 2.99065
head 10.1578 -0.072868 0.786966
rclavicle -1.9e-014 1.24986e-014
rhumerus -35.4884 5.58032 -89.1129
rradius 33.5288
rwrist 3.59281
rhand -9.15601 -29.7651
rfingers 7.12502
rthumb 16.7963 -59.0586
lclavicle -1.9e-014 1.24986e-014
lhumerus -34.0386 -15.4258 94.7167
lradius 39.5812
lwrist 0.549203
lhand -18.32 -25.8508
lfingers 7.12502
lthumb 7.96146 3.97928
rfemur 12.4543 -7.18004 6.27905
rtibia 5.853
rfoot -19.1645 -10.8059
rtoes 13.2522
lfemur 14.6151 -3.97546 -21.224
ltibia 0.293639
lfoot -12.9783 9.32393
ltoes -0.95319
1299
root 47.672 17.104 -0.882182 120.818 83.6657 123.421
lowerback 3.00015 1.66556 -8.16251
upperback 1.41467 2.03409 -0.745199
thorax -0.471264 1.01008 3.72919
lowerneck -23.7808 -0.214041 0.557697
upperneck 19.4327 -1.20916 3.09584
head 10.1401 -0.101972 0.829052
rclavicle -3.90387e-015 3.66385e-014
rhumerus -35.4927 5.4462 -89.0278
rradius 33.4817
rwrist 3.79512
rhand -9.2631 -29.6501
rfingers 7.12502
rthumb 16.6932 -58.9523
lclavicle -3.90387e-015 3.66385e-014
lhumerus -34.1423 -15.6147 94.8961
lradius 39.8792
lwrist 0.454307
lhand -18.1588 -25.7433
lfingers 7.12502
lthumb 8.11711 4.08076
rfemur 12.3642 -6.99281 6.66496
rtibia 5.92196
rfoot -19.1733 -11.1161
rtoes 12.2285
lfemur 14.645 -3.99062 -20.9307
ltibia 0.18993
lfoot -12.9551 9.43276
ltoes -1.27997
1300
root 47.6611 17.1063 -0.871694 122.53 84.0267 125.093
lowerback 3.25008 1.71399 -7.73364
upperback 1.24135 2.07372 -0.684046
thorax -0.78499 1.04491 3.54088
lowerneck -23.6291 -0.291017 0.460262
upperneck 19.4865 -1.31904 3.2656
head 10.1365 -0.137743 0.888824
rclavicle 4.61849e-015 -4.45782e-014
rhumerus -35.7649 5.28762 -89.0483
rradius 33.524
rwrist 3.85564
rhand -9.10558 -29.8606
rfingers 7.12502
rthumb 16.8448 -59.15
lclavicle 4.61849e-015 -4.45782e-014
lhumerus -34.5116 -15.9867 95.1157
lradius 40.1584
lwrist 0.372038
lhand -18.1261 -25.7334
lfingers 7.12502
lthumb 8.14865 4.08943
rfemur 12.2201 -6.38865 7.4186
rtibia 5.78736
rfoot -19.4625 -11.4394
rtoes 14.0093
lfemur 14.5261 -3.94693 -20.3223
ltibia 0.22736
lfoot -12.9394 9.44457
ltoes -1.61591
1301
root 47.6641 17.1042 -0.871227 121.231 83.8149 123.8
lowerback 3.0559 1.71368 -7.92314
upperback 1.38035 2.09659 -0.777207
thorax -0.537144 1.04511 3.55747
lowerneck -23.7374 -0.336199 0.435162
upperneck 19.4198 -1.37976 3.28835
head 10.1333 -0.165381 0.891407
rclavicle -8.86135e-015 2.83175e-014
rhumerus -35.6121 5.37915 -89.0681
rradius 33.5385
rwrist 3.7263
rhand -8.84099 -30.2716
rfingers 7.12502
rthumb 17.0995 -59.5391
lclavicle -8.86135e-015 2.83175e-014
lhumerus -34.3967 -16.2774 95.2187
lradius 40.3642
lwrist 0.301171
lhand -17.9532 -25.6548
lfingers 7.12502
lthumb 8.31551 4.16157
rfemur 12.2345 -6.93224 6.90721
rtibia 5.95558
rfoot -19.266 -11.0919
rtoes 12.686
lfemur 14.5821 -3.8765 -20.6414
ltibia 0.184765
lfoot -12.9008 9.42539
ltoes -1.64585
1302
root 47.662 17.1043 -0.863458 122.047 84.1242 124.63
lowerback 2.95113 1.72428 -7.65778
upperback 1.49201 2.13277 -0.681098
thorax -0.361983 1.05407 3.51276
lowerneck -23.8506 -0.3489 0.504307
upperneck 19.3675 -1.40133 3.19555
head 10.1336 -0.182244 0.843451
rclavicle 2.93532e-014 -1.39553e-014
rhumerus -35.4387 5.54368 -89.0858
rradius 33.4868
rwrist 3.57832
rhand -8.85315 -30.3487
rfingers 7.12502
rthumb 17.0878 -59.6173
lclavicle 2.93532e-014 -1.39553e-014
lhumerus -34.2533 -16.4392 95.3061
lradius 40.52
lwrist 0.279618
lhand -17.826 -25.5599
lfingers 7.12502
lthumb 8.43823 4.25155
rfemur 12.2096 -6.50196 7.45885
rtibia 5.8256
rfoot -19.4149 -11.2617
rtoes 14.3042
lfemur 14.6397 -3.92298 -20.2307
ltibia 0.0873184
lfoot -12.9015 9.50193
ltoes -1.29426
